<svg width="263.000000" height="42.000000" viewBox="0 0 263 42" fill="none" xmlns="http://www.w3.org/2000/svg" xmlns:xlink="http://www.w3.org/1999/xlink">
	<desc>
			Created with Pixso.
	</desc>
	<defs/>
	<path id="Разработано командой" d="M96.23 7.73C96.69 7.73 97.09 7.83 97.45 8.03C97.8 8.22 98.07 8.49 98.26 8.84C98.46 9.19 98.56 9.59 98.56 10.05C98.56 10.51 98.45 10.92 98.23 11.29C98.02 11.64 97.71 11.92 97.32 12.12C96.93 12.32 96.48 12.42 95.98 12.42C95.14 12.42 94.49 12.14 94.03 11.58Q93.34 10.75 93.34 9.18C93.34 8.21 93.55 7.44 93.97 6.87C94.38 6.31 95.02 5.93 95.88 5.75L98.12 5.27L98.29 6.29L96.25 6.7C95.66 6.82 95.23 7.03 94.94 7.32C94.65 7.61 94.48 8.02 94.43 8.54C94.65 8.28 94.91 8.08 95.22 7.94C95.52 7.8 95.86 7.73 96.23 7.73ZM174.56 6.92C174.07 6.92 173.69 6.81 173.43 6.59Q173.38 6.53 173.33 6.47L173.33 6.47Q173.05 6.14 173.05 5.59L173.8 5.59C173.8 5.81 173.87 5.98 174 6.11C174.13 6.23 174.31 6.3 174.55 6.3C174.78 6.3 174.96 6.23 175.09 6.11C175.23 5.98 175.3 5.81 175.31 5.59L176.08 5.59Q176.07 6.13 175.81 6.45Q175.75 6.52 175.68 6.59C175.42 6.81 175.05 6.92 174.56 6.92ZM68.01 5.99Q68.83 5.99 69.44 6.26C69.85 6.44 70.17 6.7 70.38 7.04Q70.41 7.07 70.43 7.11Q70.71 7.59 70.71 8.24C70.71 8.7 70.6 9.1 70.38 9.45C70.17 9.79 69.85 10.05 69.44 10.23Q68.83 10.5 68.01 10.5L66.58 10.5L66.58 12.33L65.4 12.33L65.4 5.99L68.01 5.99ZM67.96 9.5C68.47 9.5 68.86 9.39 69.12 9.18Q69.24 9.08 69.32 8.97Q69.52 8.68 69.52 8.24Q69.52 7.81 69.32 7.52L69.32 7.52Q69.24 7.4 69.12 7.31Q68.73 6.98 67.96 6.98L66.58 6.98L66.58 9.5L67.96 9.5ZM79.88 9.81C80.19 9.89 80.42 10.03 80.58 10.23C80.75 10.41 80.83 10.64 80.83 10.91C80.83 11.2 80.73 11.46 80.54 11.69C80.34 11.92 80.06 12.09 79.71 12.22C79.36 12.35 78.96 12.41 78.52 12.41Q78.01 12.41 77.52 12.3L77.52 12.3Q77.47 12.29 77.42 12.28C77.06 12.19 76.74 12.06 76.45 11.9L76.78 11.06C77.01 11.19 77.28 11.29 77.57 11.37C77.87 11.44 78.17 11.48 78.46 11.48C78.84 11.48 79.14 11.42 79.35 11.3C79.57 11.18 79.67 11.02 79.67 10.81Q79.67 10.69 79.63 10.59Q79.56 10.47 79.42 10.38C79.26 10.28 79.03 10.23 78.72 10.23L77.78 10.23L77.78 9.47L78.63 9.47C78.92 9.47 79.14 9.42 79.29 9.32C79.46 9.22 79.54 9.09 79.54 8.91C79.54 8.74 79.44 8.6 79.25 8.5C79.06 8.39 78.79 8.34 78.45 8.34C77.97 8.34 77.46 8.46 76.92 8.7L76.63 7.86C77.27 7.57 77.91 7.42 78.55 7.42C78.96 7.42 79.33 7.48 79.66 7.59C79.98 7.7 80.24 7.86 80.42 8.06C80.6 8.26 80.7 8.49 80.7 8.75C80.7 8.99 80.63 9.2 80.48 9.38C80.34 9.56 80.14 9.71 79.88 9.81ZM73.45 7.44Q74.52 7.44 75.08 7.95Q75.14 8 75.19 8.06Q75.65 8.56 75.65 9.49L75.65 12.33L74.59 12.33L74.59 11.74C74.45 11.95 74.25 12.11 73.99 12.23Q73.61 12.39 73.06 12.39C72.7 12.39 72.39 12.33 72.11 12.21C71.84 12.08 71.63 11.91 71.48 11.69C71.33 11.47 71.26 11.22 71.26 10.94C71.26 10.51 71.42 10.16 71.74 9.9Q72.23 9.5 73.27 9.5L74.52 9.5L74.52 9.43C74.52 9.09 74.42 8.83 74.21 8.65C74.02 8.47 73.72 8.38 73.32 8.38C73.05 8.38 72.78 8.42 72.51 8.51Q72.12 8.63 71.85 8.86L71.41 8.03C71.66 7.84 71.97 7.69 72.32 7.59Q72.86 7.44 73.45 7.44ZM84.69 7.44C85.16 7.44 85.58 7.54 85.95 7.74Q86.22 7.89 86.43 8.1Q86.66 8.32 86.83 8.61Q86.84 8.63 86.85 8.65Q87.14 9.2 87.14 9.91C87.14 10.4 87.04 10.83 86.83 11.21C86.62 11.59 86.32 11.88 85.95 12.08C85.58 12.29 85.16 12.39 84.69 12.39Q84.03 12.39 83.56 12.09Q83.33 11.95 83.14 11.74L83.14 14.08L82.01 14.08L82.01 7.49L83.09 7.49L83.09 8.12C83.27 7.9 83.5 7.72 83.78 7.61C84.05 7.49 84.36 7.44 84.69 7.44ZM90.01 7.44C90.72 7.44 91.27 7.61 91.64 7.95C92.02 8.29 92.21 8.8 92.21 9.49L92.21 12.33L91.14 12.33L91.14 11.74C91.01 11.95 90.81 12.11 90.55 12.23C90.29 12.34 89.98 12.39 89.62 12.39C89.26 12.39 88.94 12.33 88.67 12.21C88.4 12.08 88.19 11.91 88.04 11.69C87.89 11.47 87.82 11.22 87.82 10.94C87.82 10.51 87.98 10.16 88.3 9.9Q88.79 9.5 89.83 9.5L91.08 9.5L91.08 9.43C91.08 9.09 90.98 8.83 90.77 8.65C90.57 8.47 90.27 8.38 89.88 8.38C89.6 8.38 89.34 8.42 89.07 8.51C88.81 8.59 88.59 8.71 88.41 8.86L87.97 8.03C88.22 7.84 88.52 7.69 88.88 7.59C89.24 7.49 89.61 7.44 90.01 7.44ZM101.81 12.39C101.32 12.39 100.88 12.29 100.49 12.07C100.1 11.86 99.79 11.57 99.56 11.2C99.35 10.81 99.24 10.39 99.24 9.91C99.24 9.43 99.35 9.01 99.56 8.63C99.79 8.26 100.1 7.96 100.49 7.75C100.88 7.54 101.32 7.44 101.81 7.44C102.31 7.44 102.75 7.54 103.14 7.75C103.54 7.96 103.84 8.26 104.06 8.63C104.28 9.01 104.39 9.43 104.39 9.91C104.39 10.39 104.28 10.81 104.06 11.2C103.84 11.57 103.54 11.86 103.14 12.07C102.75 12.29 102.31 12.39 101.81 12.39ZM111.79 7.44C112.5 7.44 113.05 7.61 113.42 7.95Q113.48 8 113.53 8.06Q113.99 8.56 113.99 9.49L113.99 12.33L112.92 12.33L112.92 11.74C112.78 11.95 112.58 12.11 112.32 12.23C112.07 12.34 111.76 12.39 111.4 12.39C111.04 12.39 110.72 12.33 110.45 12.21C110.18 12.08 109.97 11.91 109.81 11.69C109.67 11.47 109.6 11.22 109.6 10.94C109.6 10.51 109.76 10.16 110.08 9.9C110.4 9.63 110.91 9.5 111.61 9.5L112.86 9.5L112.86 9.43C112.86 9.09 112.76 8.83 112.55 8.65C112.35 8.47 112.05 8.38 111.65 8.38C111.38 8.38 111.11 8.42 110.85 8.51C110.59 8.59 110.37 8.71 110.19 8.86L109.74 8.03C110 7.84 110.3 7.69 110.66 7.59C111.01 7.49 111.39 7.44 111.79 7.44ZM123.76 12.39C123.28 12.39 122.83 12.29 122.44 12.07C122.05 11.86 121.74 11.57 121.52 11.2Q121.46 11.09 121.41 10.98L121.41 10.98Q121.19 10.49 121.19 9.91Q121.19 9.3 121.43 8.81Q121.47 8.72 121.52 8.63C121.74 8.26 122.05 7.96 122.44 7.75C122.83 7.54 123.28 7.44 123.76 7.44C124.26 7.44 124.7 7.54 125.1 7.75Q125.45 7.94 125.71 8.22L125.71 8.22Q125.88 8.41 126.01 8.63C126.23 9.01 126.35 9.43 126.35 9.91C126.35 10.39 126.23 10.81 126.01 11.2Q125.88 11.42 125.71 11.61Q125.45 11.88 125.1 12.07C124.7 12.29 124.26 12.39 123.76 12.39ZM137.56 12.39C137.07 12.39 136.63 12.29 136.24 12.07Q135.9 11.89 135.64 11.63Q135.46 11.43 135.32 11.2C135.1 10.81 134.99 10.39 134.99 9.91C134.99 9.43 135.1 9.01 135.32 8.63Q135.46 8.4 135.64 8.2L135.64 8.2Q135.9 7.94 136.24 7.75C136.63 7.54 137.07 7.44 137.56 7.44C138.06 7.44 138.5 7.54 138.89 7.75C139.29 7.96 139.59 8.26 139.81 8.63C140.03 9.01 140.14 9.43 140.14 9.91C140.14 10.39 140.03 10.81 139.81 11.2C139.59 11.57 139.29 11.86 138.89 12.07C138.5 12.29 138.06 12.39 137.56 12.39ZM150.36 7.44C151.08 7.44 151.62 7.61 151.99 7.95C152.37 8.29 152.56 8.8 152.56 9.49L152.56 12.33L151.49 12.33L151.49 11.74C151.36 11.95 151.16 12.11 150.9 12.23C150.64 12.34 150.34 12.39 149.97 12.39C149.61 12.39 149.29 12.33 149.02 12.21C148.75 12.08 148.54 11.91 148.39 11.69C148.24 11.47 148.17 11.22 148.17 10.94C148.17 10.51 148.33 10.16 148.65 9.9C148.98 9.63 149.49 9.5 150.18 9.5L151.43 9.5L151.43 9.43C151.43 9.09 151.33 8.83 151.12 8.65C150.92 8.47 150.63 8.38 150.23 8.38C149.95 8.38 149.69 8.42 149.42 8.51C149.16 8.59 148.94 8.71 148.76 8.86L148.32 8.03C148.57 7.84 148.87 7.69 149.23 7.59C149.59 7.49 149.96 7.44 150.36 7.44ZM168.51 12.39C168.02 12.39 167.58 12.29 167.19 12.07Q166.85 11.89 166.59 11.63Q166.41 11.43 166.27 11.2C166.05 10.81 165.94 10.39 165.94 9.91C165.94 9.43 166.05 9.01 166.27 8.63Q166.41 8.4 166.59 8.2L166.59 8.2Q166.85 7.94 167.19 7.75C167.58 7.54 168.02 7.44 168.51 7.44C169.01 7.44 169.45 7.54 169.84 7.75C170.24 7.96 170.54 8.26 170.76 8.63Q170.82 8.74 170.87 8.85L170.87 8.85Q171.09 9.33 171.09 9.91Q171.09 10.47 170.89 10.93Q170.83 11.07 170.76 11.2C170.54 11.57 170.24 11.86 169.84 12.07C169.45 12.29 169.01 12.39 168.51 12.39ZM109.17 8.45L107.47 8.45L107.47 12.33L106.34 12.33L106.34 8.45L104.64 8.45L104.64 7.49L109.17 7.49L109.17 8.45ZM115.39 7.49L116.52 7.49L116.52 9.46L118.96 9.46L118.96 7.49L120.09 7.49L120.09 12.33L118.96 12.33L118.96 10.42L116.52 10.42L116.52 12.33L115.39 12.33L115.39 7.49ZM131.98 10.39L131.1 10.39L131.1 12.33L129.97 12.33L129.97 7.49L131.1 7.49L131.1 9.45L132 9.45L133.44 7.49L134.65 7.49L132.89 9.82L134.77 12.33L133.44 12.33L131.98 10.39ZM146.02 12.33L146.02 9.12L144.39 11.82L143.9 11.82L142.3 9.11L142.3 12.33L141.26 12.33L141.26 7.49L142.45 7.49L144.17 10.52L145.97 7.49L147.03 7.49L147.04 12.33L146.02 12.33ZM153.96 7.49L155.1 7.49L155.1 9.46L157.53 9.46L157.53 7.49L158.67 7.49L158.67 12.33L157.53 12.33L157.53 10.42L155.1 10.42L155.1 12.33L153.96 12.33L153.96 7.49ZM165.35 11.37L165.35 13.41L164.29 13.41L164.29 12.33L160.55 12.33L160.55 13.41L159.5 13.41L159.5 11.37L159.73 11.37C160.04 11.36 160.25 11.16 160.35 10.78C160.47 10.39 160.54 9.85 160.58 9.15L160.64 7.49L164.63 7.49L164.63 11.37L165.35 11.37ZM172.21 7.49L173.34 7.49L173.34 10.68L176.02 7.49L177.05 7.49L177.05 12.33L175.92 12.33L175.92 9.14L173.25 12.33L172.21 12.33L172.21 7.49ZM84.56 11.42C84.98 11.42 85.32 11.28 85.59 11.01C85.86 10.73 85.99 10.36 85.99 9.91C85.99 9.46 85.86 9.09 85.59 8.81C85.32 8.54 84.98 8.4 84.56 8.4C84.29 8.4 84.05 8.46 83.83 8.59C83.61 8.71 83.44 8.88 83.31 9.11C83.19 9.34 83.12 9.61 83.12 9.91C83.12 10.21 83.19 10.48 83.31 10.71C83.44 10.94 83.61 11.11 83.83 11.24C84.05 11.36 84.29 11.42 84.56 11.42ZM101.81 11.42Q102.2 11.42 102.5 11.26Q102.69 11.17 102.84 11.01C103.12 10.73 103.25 10.36 103.25 9.91C103.25 9.46 103.12 9.09 102.84 8.81Q102.69 8.65 102.5 8.55Q102.2 8.4 101.81 8.4Q101.43 8.4 101.12 8.55Q100.94 8.65 100.78 8.81C100.51 9.09 100.38 9.46 100.38 9.91C100.38 10.36 100.51 10.73 100.78 11.01Q100.94 11.17 101.12 11.26Q101.43 11.42 101.81 11.42ZM123.76 11.42C124.18 11.42 124.53 11.28 124.8 11.01C125.07 10.73 125.2 10.36 125.2 9.91C125.2 9.46 125.07 9.09 124.8 8.81C124.53 8.54 124.18 8.4 123.76 8.4Q123.38 8.4 123.08 8.55Q122.89 8.65 122.73 8.81C122.47 9.09 122.33 9.46 122.33 9.91C122.33 10.36 122.47 10.73 122.73 11.01Q122.89 11.17 123.08 11.26Q123.38 11.42 123.76 11.42ZM137.56 11.42C137.98 11.42 138.32 11.28 138.6 11.01C138.87 10.73 139 10.36 139 9.91C139 9.46 138.87 9.09 138.6 8.81C138.32 8.54 137.98 8.4 137.56 8.4C137.15 8.4 136.8 8.54 136.53 8.81Q136.44 8.9 136.38 9.01L136.38 9.01Q136.13 9.38 136.13 9.91Q136.13 10.44 136.38 10.81Q136.44 10.91 136.53 11.01C136.8 11.28 137.15 11.42 137.56 11.42ZM168.51 11.42C168.93 11.42 169.27 11.28 169.54 11.01C169.82 10.73 169.95 10.36 169.95 9.91C169.95 9.46 169.82 9.09 169.54 8.81C169.27 8.54 168.93 8.4 168.51 8.4C168.1 8.4 167.75 8.54 167.48 8.81C167.21 9.09 167.08 9.46 167.08 9.91C167.08 10.36 167.21 10.73 167.48 11.01C167.75 11.28 168.1 11.42 168.51 11.42ZM161.61 9.23Q161.58 10.06 161.48 10.59C161.41 10.94 161.29 11.2 161.12 11.37L163.5 11.37L163.5 8.45L161.64 8.45L161.61 9.23ZM96.01 11.5C96.42 11.5 96.76 11.37 97.01 11.1C97.27 10.83 97.4 10.49 97.4 10.07C97.4 9.66 97.27 9.32 97.01 9.07C96.76 8.81 96.42 8.69 96.01 8.69C95.58 8.69 95.24 8.81 94.98 9.07Q94.87 9.17 94.8 9.3Q94.59 9.62 94.59 10.07C94.59 10.5 94.72 10.84 94.98 11.1C95.25 11.37 95.59 11.5 96.01 11.5ZM73.3 11.57C73.58 11.57 73.83 11.5 74.05 11.38Q74.23 11.27 74.35 11.13Q74.46 10.99 74.52 10.81L74.52 10.25L73.35 10.25Q72.67 10.25 72.47 10.57Q72.38 10.7 72.38 10.9C72.38 11.1 72.46 11.27 72.62 11.39C72.78 11.51 73.01 11.57 73.3 11.57ZM89.86 11.57C90.14 11.57 90.39 11.5 90.61 11.38C90.83 11.24 90.99 11.06 91.08 10.81L91.08 10.25L89.91 10.25Q89.23 10.25 89.02 10.57Q88.93 10.7 88.93 10.9C88.93 11.1 89.02 11.27 89.18 11.39C89.34 11.51 89.57 11.57 89.86 11.57ZM111.64 11.57C111.92 11.57 112.17 11.5 112.39 11.38Q112.56 11.27 112.68 11.13Q112.79 10.99 112.86 10.81L112.86 10.25L111.69 10.25C111.04 10.25 110.71 10.47 110.71 10.9C110.71 11.1 110.79 11.27 110.96 11.39C111.12 11.51 111.35 11.57 111.64 11.57ZM150.21 11.57C150.49 11.57 150.74 11.5 150.96 11.38C151.18 11.24 151.34 11.06 151.43 10.81L151.43 10.25L150.26 10.25C149.61 10.25 149.28 10.47 149.28 10.9C149.28 11.1 149.37 11.27 149.53 11.39C149.69 11.51 149.92 11.57 150.21 11.57Z" fill="#FFFFFF" fill-opacity="1.000000" fill-rule="evenodd"/>
	<path id="Vector" d="M66.04 22.03L70.82 22.03L77.43 41.69L73.03 41.69L71.71 37.68L65.14 37.68L63.83 41.69L59.42 41.69L66.04 22.03ZM70.48 33.93L68.41 27.65L66.36 33.93L70.48 33.93ZM78.95 22.03L83.29 22.03L83.29 37.48L91.58 37.48L91.58 41.69L78.95 41.69L78.95 22.03ZM99.42 22.03L104.2 22.03L110.81 41.69L106.41 41.69L105.09 37.68L98.52 37.68L97.21 41.69L92.8 41.69L99.42 22.03ZM103.86 33.93L101.8 27.65L99.74 33.93L103.86 33.93ZM112.34 37.48L120.71 26.24L112.34 26.24L112.34 22.03L125.76 22.03L125.76 26.24L117.37 37.48L125.76 37.48L125.76 41.69L112.34 41.69L112.34 37.48ZM133.91 22.03L138.69 22.03L145.3 41.69L140.9 41.69L139.57 37.68L133.01 37.68L131.7 41.69L127.29 41.69L133.91 22.03ZM138.35 33.93L136.28 27.65L134.23 33.93L138.35 33.93ZM160.89 30.46C160.89 31.48 160.65 32.36 160.17 33.08C159.7 33.81 159.04 34.33 158.19 34.64L161.76 41.69L157.01 41.69L153.74 34.93L151.16 34.93L151.16 41.69L146.82 41.69L146.82 22.03L156.42 22.03C157.78 22.03 158.86 22.44 159.68 23.24C160.48 24.06 160.89 25.14 160.89 26.5L160.89 30.46ZM151.16 31.05L155.6 31.05C155.93 31.05 156.17 30.97 156.33 30.81C156.48 30.67 156.55 30.43 156.55 30.1L156.55 27.19C156.55 26.86 156.48 26.61 156.33 26.46C156.17 26.31 155.93 26.24 155.6 26.24L151.16 26.24L151.16 31.05ZM175.82 33.85C174.46 33.85 173.38 33.45 172.58 32.63C171.76 31.83 171.35 30.74 171.35 29.39L171.35 26.5C171.35 25.14 171.76 24.06 172.58 23.24C173.38 22.44 174.46 22.03 175.82 22.03L181.09 22.03C182.45 22.03 183.54 22.44 184.35 23.24C185.16 24.06 185.56 25.14 185.56 26.5L185.56 27.84L181.22 27.84L181.22 27.17C181.22 26.83 181.15 26.59 181.01 26.45C180.85 26.3 180.61 26.23 180.28 26.23L176.64 26.23C176.31 26.23 176.07 26.3 175.92 26.45C175.77 26.59 175.69 26.83 175.69 27.17L175.69 28.83C175.69 29.17 175.77 29.41 175.92 29.56C176.07 29.71 176.31 29.78 176.64 29.78L181.09 29.78C182.45 29.78 183.54 30.18 184.35 30.99C185.16 31.8 185.56 32.89 185.56 34.25L185.56 37.22C185.56 38.58 185.16 39.66 184.35 40.46C183.54 41.28 182.45 41.69 181.09 41.69L175.82 41.69C174.46 41.69 173.38 41.28 172.58 40.46C171.76 39.66 171.35 38.58 171.35 37.22L171.35 35.82L175.69 35.82L175.69 36.55C175.69 36.89 175.77 37.13 175.92 37.28C176.07 37.42 176.31 37.49 176.64 37.49L180.28 37.49C180.61 37.49 180.85 37.42 181.01 37.28C181.15 37.13 181.22 36.89 181.22 36.55L181.22 34.8C181.22 34.46 181.15 34.22 181.01 34.07C180.85 33.93 180.61 33.85 180.28 33.85L175.82 33.85ZM193.57 26.24L188.31 26.24L188.31 22.03L203.16 22.03L203.16 26.24L197.91 26.24L197.91 41.69L193.57 41.69L193.57 26.24ZM219.88 37.22C219.88 38.58 219.47 39.66 218.67 40.46C217.85 41.28 216.76 41.69 215.41 41.69L210.4 41.69C209.04 41.69 207.96 41.28 207.15 40.46C206.34 39.66 205.93 38.58 205.93 37.22L205.93 22.03L210.27 22.03L210.27 36.53C210.27 36.86 210.34 37.1 210.5 37.25C210.65 37.4 210.88 37.48 211.21 37.48L214.58 37.48C214.92 37.48 215.16 37.41 215.32 37.26C215.46 37.12 215.54 36.87 215.54 36.53L215.54 22.03L219.88 22.03L219.88 37.22ZM237.18 37.22C237.18 38.58 236.78 39.66 235.98 40.46C235.17 41.28 234.09 41.69 232.73 41.69L223.22 41.69L223.22 22.03L232.73 22.03C234.09 22.03 235.17 22.44 235.98 23.24C236.78 24.06 237.18 25.14 237.18 26.5L237.18 37.22ZM231.9 37.48C232.24 37.48 232.48 37.4 232.63 37.25C232.77 37.1 232.85 36.86 232.85 36.53L232.85 27.19C232.85 26.86 232.77 26.61 232.63 26.46C232.48 26.31 232.24 26.24 231.9 26.24L227.56 26.24L227.56 37.48L231.9 37.48ZM240.91 22.03L245.25 22.03L245.25 41.69L240.91 41.69L240.91 22.03ZM263 37.22C263 38.58 262.59 39.66 261.79 40.46C260.98 41.28 259.9 41.69 258.54 41.69L253.45 41.69C252.09 41.69 251 41.28 250.2 40.46C249.38 39.66 248.98 38.58 248.98 37.22L248.98 26.5C248.98 25.14 249.38 24.06 250.2 23.24C251 22.44 252.09 22.03 253.45 22.03L258.54 22.03C259.9 22.03 260.98 22.44 261.79 23.24C262.59 24.06 263 25.14 263 26.5L263 37.22ZM253.31 36.53C253.31 36.86 253.39 37.1 253.55 37.25C253.69 37.4 253.93 37.48 254.26 37.48L257.71 37.48C258.05 37.48 258.29 37.4 258.44 37.25C258.58 37.1 258.66 36.86 258.66 36.53L258.66 27.19C258.66 26.86 258.58 26.61 258.44 26.46C258.29 26.31 258.05 26.24 257.71 26.24L254.26 26.24C253.93 26.24 253.69 26.31 253.55 26.46C253.39 26.61 253.31 26.86 253.31 27.19L253.31 36.53Z" fill="#FFFFFF" fill-opacity="1.000000" fill-rule="nonzero"/>
	<path id="Vector" d="M0 39.82L17.82 -0.56L29.07 -0.56L37.86 19.85L27.13 19.85L21.11 5.03L25.61 5.03L18.18 23.55L28.6 23.55L31.93 31.98L14.8 31.98L11.65 39.82L0 39.82Z" fill="#FFFFFF" fill-opacity="1.000000" fill-rule="nonzero"/>
	<path id="Vector" d="M42.77 37.07L44.58 41.22L33.05 41.22L31.41 37.07L42.77 37.07Z" fill="#E5097F" fill-opacity="1.000000" fill-rule="nonzero"/>
</svg>
