<svg width="17.000000" height="17.000000" viewBox="0 0 17 17" fill="none" xmlns="http://www.w3.org/2000/svg" xmlns:xlink="http://www.w3.org/1999/xlink">
	<desc>
			Created with Pixso.
	</desc>
	<defs/>
	<path d="M5.99 12.35C5.15 12.35 4.34 12.2 3.57 11.88C2.79 11.56 2.1 11.1 1.49 10.49C0.27 9.25 -0.34 7.75 -0.34 5.99C-0.34 4.23 0.27 2.73 1.49 1.49C2.1 0.88 2.79 0.41 3.57 0.08C4.34 -0.24 5.15 -0.41 5.99 -0.41C6.83 -0.41 7.64 -0.24 8.42 0.08C9.19 0.41 9.88 0.88 10.49 1.49C11.73 2.73 12.35 4.23 12.35 5.99C12.35 7.75 11.73 9.25 10.49 10.49C9.88 11.1 9.19 11.56 8.42 11.88C7.64 12.2 6.83 12.35 5.99 12.35ZM5.99 0.23C5.22 0.23 4.49 0.37 3.79 0.65C3.1 0.93 2.48 1.35 1.91 1.91C0.81 3.04 0.26 4.4 0.26 5.99C0.26 7.58 0.81 8.94 1.91 10.07C2.48 10.61 3.1 11.02 3.79 11.32C4.49 11.61 5.22 11.76 5.99 11.76C6.76 11.76 7.5 11.61 8.21 11.32C8.91 11.02 9.53 10.61 10.07 10.07C11.19 8.94 11.76 7.58 11.76 5.99C11.76 4.4 11.19 3.04 10.07 1.91C9.53 1.35 8.91 0.93 8.21 0.65C7.5 0.37 6.76 0.23 5.99 0.23ZM15.17 16.4C15 16.4 14.86 16.37 14.73 16.31C14.6 16.25 14.48 16.16 14.36 16.05L9.23 10.91L10.88 9.26L16.01 14.39C16.22 14.63 16.33 14.9 16.33 15.2C16.33 15.51 16.22 15.76 16.01 15.98L15.94 16.05C15.85 16.16 15.73 16.25 15.59 16.31C15.45 16.37 15.31 16.4 15.17 16.4ZM10.07 10.91L14.78 15.62C14.9 15.72 15.03 15.76 15.17 15.76C15.31 15.76 15.42 15.72 15.52 15.62L15.59 15.55C15.68 15.46 15.73 15.34 15.73 15.2C15.73 15.06 15.68 14.93 15.59 14.82L10.88 10.1L10.07 10.91Z" fill="#FFFFFF" fill-opacity="1.000000" fill-rule="nonzero"/>
</svg>
