<svg width="16.664062" height="16.804688" viewBox="0 0 16.6641 16.8047" fill="none" xmlns="http://www.w3.org/2000/svg" xmlns:xlink="http://www.w3.org/1999/xlink">
	<desc>
			Created with Pixso.
	</desc>
	<defs/>
	<path id="Vector" d="M6.32 12.76C5.48 12.76 4.67 12.6 3.9 12.28C3.12 11.97 2.43 11.5 1.82 10.89C0.6 9.65 0 8.15 0 6.39C0 4.64 0.6 3.14 1.82 1.89C2.43 1.28 3.12 0.82 3.9 0.49C4.67 0.16 5.48 0 6.32 0C7.17 0 7.98 0.16 8.75 0.49C9.52 0.82 10.21 1.28 10.82 1.89C12.07 3.14 12.69 4.64 12.69 6.39C12.69 8.15 12.07 9.65 10.82 10.89C10.21 11.5 9.52 11.97 8.75 12.28C7.98 12.6 7.17 12.76 6.32 12.76ZM6.32 0.63C5.55 0.63 4.82 0.77 4.13 1.05C3.43 1.33 2.81 1.75 2.25 2.32C1.14 3.44 0.59 4.8 0.59 6.39C0.59 7.99 1.14 9.35 2.25 10.47C2.81 11.01 3.43 11.43 4.13 11.72C4.82 12.01 5.55 12.16 6.32 12.16C7.1 12.16 7.83 12.01 8.54 11.72C9.24 11.43 9.86 11.01 10.4 10.47C11.53 9.35 12.09 7.99 12.09 6.39C12.09 4.8 11.53 3.44 10.4 2.32C9.86 1.75 9.24 1.33 8.54 1.05C7.83 0.77 7.1 0.63 6.32 0.63ZM15.5 16.8C15.33 16.8 15.19 16.77 15.06 16.71C14.93 16.65 14.81 16.57 14.69 16.45L9.56 11.32L11.21 9.66L16.34 14.8C16.55 15.03 16.66 15.3 16.66 15.6C16.66 15.91 16.55 16.17 16.34 16.38L16.27 16.45C16.18 16.57 16.06 16.65 15.92 16.71C15.78 16.77 15.64 16.8 15.5 16.8ZM10.4 11.32L15.11 16.03C15.23 16.12 15.36 16.17 15.5 16.17C15.64 16.17 15.76 16.12 15.85 16.03L15.92 15.96C16.01 15.86 16.06 15.75 16.06 15.6C16.06 15.46 16.01 15.33 15.92 15.22L11.21 10.51L10.4 11.32Z" fill="#000000" fill-opacity="1.000000" fill-rule="nonzero"/>
</svg>
