<svg width="50" height="51" viewBox="0 0 50 51" fill="none" xmlns="http://www.w3.org/2000/svg">
<path d="M44.8242 10.4016C44.5638 10.4016 44.3522 10.3202 44.1895 10.1575C44.0267 9.99471 43.9453 9.81567 43.9453 9.62036C43.9453 9.35994 44.0267 9.14836 44.1895 8.9856C44.3522 8.82283 44.5638 8.74146 44.8242 8.74146C45.7357 8.74146 46.5169 8.41594 47.168 7.76489C47.819 7.11385 48.1445 6.3326 48.1445 5.42114C48.1445 4.50969 47.819 3.72844 47.168 3.07739C46.5169 2.42635 45.7357 2.10083 44.8242 2.10083C44.5638 2.10083 44.3522 2.01945 44.1895 1.85669C44.0267 1.69393 43.9453 1.51489 43.9453 1.31958C43.9453 1.05916 44.0267 0.847576 44.1895 0.684814C44.3522 0.522053 44.5638 0.440674 44.8242 0.440674C46.1914 0.440674 47.3633 0.928955 48.3398 1.90552C49.3164 2.88208 49.8047 4.05396 49.8047 5.42114C49.8047 6.78833 49.3164 7.96021 48.3398 8.93677C47.3633 9.91333 46.1914 10.4016 44.8242 10.4016ZM34.375 50.4407H5.17578C3.80859 50.4407 2.63672 49.9524 1.66016 48.9758C0.683594 47.9993 0.195312 46.8274 0.195312 45.4602C0.195312 44.093 0.683594 42.9211 1.66016 41.9446C2.63672 40.968 3.80859 40.4797 5.17578 40.4797H34.375C34.6354 40.4797 34.847 40.5611 35.0098 40.7239C35.1725 40.8866 35.2539 41.0657 35.2539 41.261C35.2539 41.5214 35.1725 41.733 35.0098 41.8958C34.847 42.0585 34.6354 42.1399 34.375 42.1399C33.4635 42.1399 32.6823 42.4654 32.0312 43.1165C31.3802 43.7675 31.0547 44.5487 31.0547 45.4602C31.0547 46.3717 31.3802 47.1529 32.0312 47.804C32.6823 48.455 33.4635 48.7805 34.375 48.7805C34.6354 48.7805 34.847 48.8619 35.0098 49.0247C35.1725 49.1874 35.2539 49.3665 35.2539 49.5618C35.2539 49.8222 35.1725 50.0338 35.0098 50.1965C34.847 50.3593 34.6354 50.4407 34.375 50.4407ZM5.17578 42.1399C4.26432 42.1399 3.48307 42.4654 2.83203 43.1165C2.18099 43.7675 1.85547 44.5487 1.85547 45.4602C1.85547 46.3717 2.18099 47.1529 2.83203 47.804C3.48307 48.455 4.26432 48.7805 5.17578 48.7805H30.6641C30.2734 48.3248 29.9642 47.8202 29.7363 47.2668C29.5085 46.7135 29.3945 46.1112 29.3945 45.4602C29.3945 44.8092 29.5085 44.1907 29.7363 43.6047C29.9642 43.0188 30.2734 42.5305 30.6641 42.1399H5.17578ZM35.4492 50.4407H32.9102C32.7148 50.4407 32.5358 50.3593 32.373 50.1965C32.2103 50.0338 32.1289 49.8222 32.1289 49.5618C32.1289 49.3665 32.2103 49.1874 32.373 49.0247C32.5358 48.8619 32.7148 48.7805 32.9102 48.7805H35.4492C36.6862 48.7805 37.6953 48.276 38.4766 47.2668C39.2578 46.2577 39.6484 45.1672 39.6484 43.9954V5.42114C39.6484 4.7701 39.7624 4.16789 39.9902 3.6145C40.2181 3.06112 40.5273 2.55656 40.918 2.10083H14.5508C13.444 2.10083 12.3372 2.52401 11.2305 3.37036C10.1237 4.21672 9.57031 5.25838 9.57031 6.49536V40.4797C9.57031 40.675 9.48893 40.8541 9.32617 41.0168C9.16341 41.1796 8.98438 41.261 8.78906 41.261C8.52865 41.261 8.31706 41.1796 8.1543 41.0168C7.99154 40.8541 7.91016 40.675 7.91016 40.4797V6.49536C7.91016 4.73755 8.6263 3.28898 10.0586 2.14966C11.4909 1.01033 12.9883 0.440674 14.5508 0.440674H44.8242C45.0195 0.440674 45.1986 0.522053 45.3613 0.684814C45.5241 0.847576 45.6055 1.05916 45.6055 1.31958C45.6055 1.51489 45.5241 1.69393 45.3613 1.85669C45.1986 2.01945 45.0195 2.10083 44.8242 2.10083C43.8477 2.10083 43.0176 2.44263 42.334 3.12622C41.6504 3.80981 41.3086 4.57479 41.3086 5.42114V43.9954C41.3086 45.7532 40.7227 47.2668 39.5508 48.5364C38.3789 49.8059 37.0117 50.4407 35.4492 50.4407ZM22.9492 10.4016H14.6484C14.388 10.4016 14.1764 10.3202 14.0137 10.1575C13.8509 9.99471 13.7695 9.81567 13.7695 9.62036C13.7695 9.35994 13.8509 9.14836 14.0137 8.9856C14.1764 8.82283 14.388 8.74146 14.6484 8.74146H22.9492C23.1445 8.74146 23.3236 8.82283 23.4863 8.9856C23.6491 9.14836 23.7305 9.35994 23.7305 9.62036C23.7305 9.81567 23.6491 9.99471 23.4863 10.1575C23.3236 10.3202 23.1445 10.4016 22.9492 10.4016ZM34.5703 15.4797H14.6484C14.388 15.4797 14.1764 15.3984 14.0137 15.2356C13.8509 15.0728 13.7695 14.8612 13.7695 14.6008C13.7695 14.4055 13.8509 14.2265 14.0137 14.0637C14.1764 13.901 14.388 13.8196 14.6484 13.8196H34.5703C34.8307 13.8196 35.0423 13.901 35.2051 14.0637C35.3678 14.2265 35.4492 14.4055 35.4492 14.6008C35.4492 14.8612 35.3678 15.0728 35.2051 15.2356C35.0423 15.3984 34.8307 15.4797 34.5703 15.4797ZM34.5703 20.4602H14.6484C14.388 20.4602 14.1764 20.3788 14.0137 20.2161C13.8509 20.0533 13.7695 19.8417 13.7695 19.5813C13.7695 19.386 13.8509 19.2069 14.0137 19.0442C14.1764 18.8814 14.388 18.8 14.6484 18.8H34.5703C34.8307 18.8 35.0423 18.8814 35.2051 19.0442C35.3678 19.2069 35.4492 19.386 35.4492 19.5813C35.4492 19.8417 35.3678 20.0533 35.2051 20.2161C35.0423 20.3788 34.8307 20.4602 34.5703 20.4602ZM34.5703 25.4407H14.6484C14.388 25.4407 14.1764 25.3593 14.0137 25.1965C13.8509 25.0338 13.7695 24.8222 13.7695 24.5618C13.7695 24.3665 13.8509 24.1874 14.0137 24.0247C14.1764 23.8619 14.388 23.7805 14.6484 23.7805H34.5703C34.8307 23.7805 35.0423 23.8619 35.2051 24.0247C35.3678 24.1874 35.4492 24.3665 35.4492 24.5618C35.4492 24.8222 35.3678 25.0338 35.2051 25.1965C35.0423 25.3593 34.8307 25.4407 34.5703 25.4407ZM34.5703 30.4211H14.6484C14.388 30.4211 14.1764 30.3398 14.0137 30.177C13.8509 30.0142 13.7695 29.8352 13.7695 29.6399C13.7695 29.3795 13.8509 29.1679 14.0137 29.0051C14.1764 28.8424 14.388 28.761 14.6484 28.761H34.5703C34.8307 28.761 35.0423 28.8424 35.2051 29.0051C35.3678 29.1679 35.4492 29.3795 35.4492 29.6399C35.4492 29.8352 35.3678 30.0142 35.2051 30.177C35.0423 30.3398 34.8307 30.4211 34.5703 30.4211ZM34.5703 35.4016H14.6484C14.388 35.4016 14.1764 35.3202 14.0137 35.1575C13.8509 34.9947 13.7695 34.8157 13.7695 34.6204C13.7695 34.3599 13.8509 34.1484 14.0137 33.9856C14.1764 33.8228 14.388 33.7415 14.6484 33.7415H34.5703C34.8307 33.7415 35.0423 33.8228 35.2051 33.9856C35.3678 34.1484 35.4492 34.3599 35.4492 34.6204C35.4492 34.8157 35.3678 34.9947 35.2051 35.1575C35.0423 35.3202 34.8307 35.4016 34.5703 35.4016Z" fill="white"/>
</svg>
