<svg width="49.000000" height="50.000000" viewBox="0 0 49 50" fill="none" xmlns="http://www.w3.org/2000/svg" xmlns:xlink="http://www.w3.org/1999/xlink">
	<desc>
			Created with Pixso.
	</desc>
	<defs/>
	<path id="Vector" d="M47.33 49.44L0.66 49.44C0.46 49.44 0.28 49.35 0.12 49.19C-0.04 49.03 -0.13 48.85 -0.13 48.65L-0.13 42.01C-0.13 41.75 -0.04 41.56 0.12 41.43C0.28 41.3 0.46 41.23 0.66 41.23L47.33 41.23C47.53 41.23 47.71 41.3 47.87 41.43C48.03 41.56 48.12 41.75 48.12 42.01L48.12 48.65C48.12 48.85 48.03 49.03 47.87 49.19C47.71 49.35 47.53 49.44 47.33 49.44ZM1.53 47.78L46.46 47.78L46.46 42.8L1.53 42.8L1.53 47.78ZM44.01 42.8L3.98 42.8C3.78 42.8 3.6 42.71 3.44 42.55C3.28 42.39 3.19 42.21 3.19 42.01L3.19 35.37C3.19 35.18 3.28 35 3.44 34.84C3.6 34.67 3.78 34.59 3.98 34.59L44.01 34.59C44.21 34.59 44.39 34.67 44.55 34.84C44.71 35 44.8 35.18 44.8 35.37L44.8 42.01C44.8 42.21 44.71 42.39 44.55 42.55C44.39 42.71 44.21 42.8 44.01 42.8ZM4.85 41.23L43.14 41.23L43.14 36.25L4.85 36.25L4.85 41.23ZM45.19 11.45L3.58 11.45C3.39 11.45 3.21 11.4 3.05 11.3C2.88 11.2 2.77 11.06 2.71 10.86C2.71 10.67 2.74 10.49 2.8 10.32C2.87 10.16 3 10.02 3.19 9.88L23.9 -0.47C24.03 -0.53 24.16 -0.56 24.29 -0.56C24.42 -0.56 24.55 -0.53 24.68 -0.47L45.58 9.88C45.77 10.02 45.9 10.16 45.97 10.32C46.03 10.49 46.07 10.67 46.07 10.86C46 11.06 45.89 11.2 45.72 11.3C45.56 11.4 45.38 11.45 45.19 11.45ZM7 9.88L41.67 9.88L24.29 1.19L7 9.88ZM7.3 33.81C7.1 33.81 6.92 33.73 6.76 33.57C6.6 33.4 6.51 33.19 6.51 32.93L6.51 14.77C6.51 14.57 6.6 14.39 6.76 14.23C6.92 14.07 7.1 13.99 7.3 13.99C7.56 13.99 7.77 14.07 7.93 14.23C8.09 14.39 8.17 14.57 8.17 14.77L8.17 32.93C8.17 33.19 8.09 33.4 7.93 33.57C7.77 33.73 7.56 33.81 7.3 33.81ZM10.62 33.81C10.42 33.81 10.24 33.73 10.08 33.57C9.92 33.4 9.83 33.19 9.83 32.93L9.83 14.77C9.83 14.57 9.92 14.39 10.08 14.23C10.24 14.07 10.42 13.99 10.62 13.99C10.88 13.99 11.09 14.07 11.25 14.23C11.41 14.39 11.5 14.57 11.5 14.77L11.5 32.93C11.5 33.19 11.41 33.4 11.25 33.57C11.09 33.73 10.88 33.81 10.62 33.81ZM22.33 33.81C22.07 33.81 21.86 33.73 21.7 33.57C21.54 33.4 21.46 33.19 21.46 32.93L21.46 14.77C21.46 14.57 21.54 14.39 21.7 14.23C21.86 14.07 22.07 13.99 22.33 13.99C22.53 13.99 22.71 14.07 22.87 14.23C23.03 14.39 23.12 14.57 23.12 14.77L23.12 32.93C23.12 33.19 23.03 33.4 22.87 33.57C22.71 33.73 22.53 33.81 22.33 33.81ZM25.66 33.81C25.46 33.81 25.28 33.73 25.12 33.57C24.96 33.4 24.87 33.19 24.87 32.93L24.87 14.77C24.87 14.57 24.96 14.39 25.12 14.23C25.28 14.07 25.46 13.99 25.66 13.99C25.92 13.99 26.13 14.07 26.29 14.23C26.45 14.39 26.53 14.57 26.53 14.77L26.53 32.93C26.53 33.19 26.45 33.4 26.29 33.57C26.13 33.73 25.92 33.81 25.66 33.81ZM37.37 33.81C37.11 33.81 36.9 33.73 36.74 33.57C36.58 33.4 36.5 33.19 36.5 32.93L36.5 14.77C36.5 14.57 36.58 14.39 36.74 14.23C36.9 14.07 37.11 13.99 37.37 13.99C37.57 13.99 37.75 14.07 37.91 14.23C38.07 14.39 38.16 14.57 38.16 14.77L38.16 32.93C38.16 33.19 38.07 33.4 37.91 33.57C37.75 33.73 37.57 33.81 37.37 33.81ZM40.69 33.81C40.43 33.81 40.22 33.73 40.06 33.57C39.9 33.4 39.82 33.19 39.82 32.93L39.82 14.77C39.82 14.57 39.9 14.39 40.06 14.23C40.22 14.07 40.43 13.99 40.69 13.99C40.89 13.99 41.07 14.07 41.23 14.23C41.39 14.39 41.48 14.57 41.48 14.77L41.48 32.93C41.48 33.19 41.39 33.4 41.23 33.57C41.07 33.73 40.89 33.81 40.69 33.81Z" fill="#000000" fill-opacity="1.000000" fill-rule="nonzero"/>
</svg>
