<svg width="44" height="51" viewBox="0 0 44 51" fill="none" xmlns="http://www.w3.org/2000/svg">
<path d="M20.9258 16.6516H22.5859V41.6516H20.9258V16.6516ZM21.8047 12.0618C21.5443 12.0618 21.3327 11.9804 21.1699 11.8176C21.0072 11.6549 20.9258 11.4433 20.9258 11.1829V1.71021C20.9258 1.44979 21.0072 1.2382 21.1699 1.07544C21.3327 0.912678 21.5443 0.831299 21.8047 0.831299C22 0.831299 22.179 0.912678 22.3418 1.07544C22.5046 1.2382 22.5859 1.44979 22.5859 1.71021V11.1829C22.5859 11.4433 22.5046 11.6549 22.3418 11.8176C22.179 11.9804 22 12.0618 21.8047 12.0618ZM29.4219 50.05H14.4805C14.2852 50.05 14.1061 49.9687 13.9434 49.8059C13.7806 49.6431 13.6992 49.4316 13.6992 49.1711C13.6992 46.6321 14.4479 44.6139 15.9453 43.1165C17.4427 41.6191 19.4609 40.8704 22 40.8704C24.474 40.8704 26.4596 41.6028 27.957 43.0676C29.4544 44.5325 30.2031 46.5019 30.2031 48.9758C30.2682 48.9758 30.3008 49.0084 30.3008 49.0735C30.3008 49.1386 30.3008 49.1711 30.3008 49.1711C30.3008 49.4316 30.2194 49.6431 30.0566 49.8059C29.8939 49.9687 29.6823 50.05 29.4219 50.05ZM15.3594 48.3899H28.543C28.3477 46.2415 27.5827 44.7278 26.248 43.8489C24.9134 42.97 23.4974 42.5305 22 42.5305C20.4375 42.5305 18.9889 42.97 17.6543 43.8489C16.3197 44.7278 15.5547 46.2415 15.3594 48.3899ZM8.32812 35.7922C5.78906 35.7922 3.77083 35.0435 2.27344 33.5461C0.776042 32.0487 0.0273438 30.0305 0.0273438 27.4915C0.0273438 27.2961 0.108724 27.1171 0.271484 26.9543C0.434245 26.7916 0.645833 26.7102 0.90625 26.7102H15.75C16.0104 26.7102 16.222 26.7916 16.3848 26.9543C16.5475 27.1171 16.6289 27.2961 16.6289 27.4915C16.6289 30.0305 15.8802 32.0487 14.3828 33.5461C12.8854 35.0435 10.8672 35.7922 8.32812 35.7922ZM1.6875 28.3704C1.88281 30.5188 2.66406 32.0162 4.03125 32.8625C5.39844 33.7089 6.83073 34.1321 8.32812 34.1321C9.82552 34.1321 11.2578 33.7089 12.625 32.8625C13.9922 32.0162 14.7734 30.5188 14.9688 28.3704H1.6875ZM37.625 8.35083H5.88672C5.69141 8.35083 5.51237 8.26945 5.34961 8.10669C5.18685 7.94393 5.10547 7.76489 5.10547 7.56958C5.10547 7.30916 5.18685 7.09758 5.34961 6.93481C5.51237 6.77205 5.69141 6.69067 5.88672 6.69067H37.625C37.8203 6.69067 37.9993 6.77205 38.1621 6.93481C38.3249 7.09758 38.4062 7.30916 38.4062 7.56958C38.4062 7.76489 38.3249 7.94393 38.1621 8.10669C37.9993 8.26945 37.8203 8.35083 37.625 8.35083ZM21.8047 18.3118C20.6979 18.3118 19.7539 17.9211 18.9727 17.1399C18.1914 16.3586 17.8008 15.4146 17.8008 14.3079C17.8008 13.2011 18.1914 12.2734 18.9727 11.5247C19.7539 10.776 20.6979 10.4016 21.8047 10.4016C22.8464 10.4016 23.7578 10.776 24.5391 11.5247C25.3203 12.2734 25.7109 13.2011 25.7109 14.3079C25.7109 15.4146 25.3203 16.3586 24.5391 17.1399C23.7578 17.9211 22.8464 18.3118 21.8047 18.3118ZM21.8047 12.0618C21.1536 12.0618 20.6003 12.2734 20.1445 12.6965C19.6888 13.1197 19.4609 13.6568 19.4609 14.3079C19.4609 14.9589 19.6888 15.5123 20.1445 15.968C20.6003 16.4237 21.1536 16.6516 21.8047 16.6516C22.3906 16.6516 22.9115 16.4237 23.3672 15.968C23.8229 15.5123 24.0508 14.9589 24.0508 14.3079C24.0508 13.6568 23.8229 13.1197 23.3672 12.6965C22.9115 12.2734 22.3906 12.0618 21.8047 12.0618ZM2.17578 27.8821C2.11068 27.8821 2.06185 27.8821 2.0293 27.8821C1.99674 27.8821 1.94792 27.8821 1.88281 27.8821C1.6875 27.817 1.54102 27.6868 1.44336 27.4915C1.3457 27.2961 1.32943 27.0683 1.39453 26.8079L7.54688 7.27661C7.61198 7.0813 7.74219 6.91854 7.9375 6.78833C8.13281 6.65812 8.36068 6.62557 8.62109 6.69067C8.81641 6.75578 8.96289 6.90226 9.06055 7.13013C9.1582 7.35799 9.17448 7.56958 9.10938 7.76489L2.95703 27.2961C2.89193 27.4915 2.79427 27.6379 2.66406 27.7356C2.53385 27.8333 2.37109 27.8821 2.17578 27.8821ZM14.4805 27.8821C14.2852 27.8821 14.1224 27.8333 13.9922 27.7356C13.862 27.6379 13.7643 27.4915 13.6992 27.2961L7.54688 7.76489C7.48177 7.56958 7.49805 7.35799 7.5957 7.13013C7.69336 6.90226 7.83984 6.75578 8.03516 6.69067C8.29557 6.62557 8.52344 6.65812 8.71875 6.78833C8.91406 6.91854 9.04427 7.0813 9.10938 7.27661L15.2617 26.8079C15.3268 27.0683 15.3105 27.2961 15.2129 27.4915C15.1152 27.6868 14.9688 27.817 14.7734 27.8821C14.7083 27.8821 14.6595 27.8821 14.627 27.8821C14.5944 27.8821 14.5456 27.8821 14.4805 27.8821ZM35.6719 35.7922C33.1328 35.7922 31.1146 35.0435 29.6172 33.5461C28.1198 32.0487 27.3711 30.0305 27.3711 27.4915C27.3711 27.2961 27.4525 27.1171 27.6152 26.9543C27.778 26.7916 27.9896 26.7102 28.25 26.7102H43.0938C43.3542 26.7102 43.5658 26.7916 43.7285 26.9543C43.8913 27.1171 43.9727 27.2961 43.9727 27.4915C43.9727 30.0305 43.224 32.0487 41.7266 33.5461C40.2292 35.0435 38.2109 35.7922 35.6719 35.7922ZM29.0312 28.3704C29.2266 30.5188 30.0078 32.0162 31.375 32.8625C32.7422 33.7089 34.1745 34.1321 35.6719 34.1321C37.1693 34.1321 38.6016 33.7089 39.9688 32.8625C41.3359 32.0162 42.1172 30.5188 42.3125 28.3704H29.0312ZM29.5195 27.8821C29.4544 27.8821 29.4056 27.8821 29.373 27.8821C29.3405 27.8821 29.2917 27.8821 29.2266 27.8821C29.0312 27.817 28.8848 27.6868 28.7871 27.4915C28.6895 27.2961 28.6732 27.0683 28.7383 26.8079L34.8906 7.27661C34.9557 7.0813 35.0859 6.91854 35.2812 6.78833C35.4766 6.65812 35.7044 6.62557 35.9648 6.69067C36.1602 6.75578 36.3066 6.90226 36.4043 7.13013C36.502 7.35799 36.5182 7.56958 36.4531 7.76489L30.3008 27.2961C30.2357 27.4915 30.138 27.6379 30.0078 27.7356C29.8776 27.8333 29.7148 27.8821 29.5195 27.8821ZM41.8242 27.8821C41.6289 27.8821 41.4661 27.8333 41.3359 27.7356C41.2057 27.6379 41.1081 27.4915 41.043 27.2961L34.8906 7.76489C34.8255 7.56958 34.8418 7.35799 34.9395 7.13013C35.0371 6.90226 35.1836 6.75578 35.3789 6.69067C35.6393 6.62557 35.8672 6.65812 36.0625 6.78833C36.2578 6.91854 36.388 7.0813 36.4531 7.27661L42.6055 26.8079C42.6706 27.0683 42.6543 27.2961 42.5566 27.4915C42.459 27.6868 42.3125 27.817 42.1172 27.8821C42.0521 27.8821 42.0033 27.8821 41.9707 27.8821C41.9382 27.8821 41.8893 27.8821 41.8242 27.8821Z" fill="black"/>
</svg>
