<svg width="23.000000" height="30.000000" viewBox="0 0 23 30" fill="none" xmlns="http://www.w3.org/2000/svg" xmlns:xlink="http://www.w3.org/1999/xlink">
	<desc>
			Created with Pixso.
	</desc>
	<defs/>
	<path id="coolicon" d="M11.5 30C9.42 28.2 7.5 26.23 5.75 24.11C3.12 20.93 0 16.18 0 11.67C-0.01 6.95 2.79 2.69 7.09 0.88C11.39 -0.92 16.34 0.08 19.63 3.42C21.79 5.6 23 8.57 23 11.67C23 16.18 19.87 20.93 17.25 24.11C15.49 26.23 13.57 28.2 11.5 30ZM11.5 3.33C6.96 3.34 3.29 7.07 3.28 11.67C3.28 13.61 4.15 16.97 8.27 21.97C9.28 23.2 10.36 24.38 11.5 25.5C12.63 24.38 13.71 23.21 14.72 21.98C18.84 16.97 19.71 13.61 19.71 11.67C19.7 7.07 16.03 3.34 11.5 3.33ZM11.5 16.66C8.77 16.66 6.57 14.43 6.57 11.67C6.57 8.9 8.77 6.67 11.5 6.67C14.22 6.67 16.42 8.9 16.42 11.67C16.42 12.99 15.9 14.26 14.98 15.2C14.06 16.14 12.8 16.66 11.5 16.66Z" fill="#FFFFFF" fill-opacity="1.000000" fill-rule="nonzero"/>
</svg>
